<svg width="18" height="12" viewBox="0 0 18 12" fill="none" xmlns="http://www.w3.org/2000/svg">
<path d="M15.5985 0H2.41666C1.51041 0 0.777175 0.675 0.777175 1.5L0.768936 10.5C0.768936 11.325 1.51041 12 2.41666 12H15.5985C16.5047 12 17.2462 11.325 17.2462 10.5V1.5C17.2462 0.675 16.5047 0 15.5985 0ZM15.2689 3.1875L9.44422 6.5025C9.18058 6.6525 8.83456 6.6525 8.57093 6.5025L2.74621 3.1875C2.54024 3.0675 2.41666 2.865 2.41666 2.6475C2.41666 2.145 3.01808 1.845 3.48769 2.1075L9.00757 5.25L14.5275 2.1075C14.9971 1.845 15.5985 2.145 15.5985 2.6475C15.5985 2.865 15.4749 3.0675 15.2689 3.1875Z" fill="#212121"/>
</svg>
