<svg width="15" height="14" viewBox="0 0 15 14" fill="none" xmlns="http://www.w3.org/2000/svg">
<path d="M13.4956 9.12256L11.4764 8.91269C10.9915 8.86203 10.5146 9.01401 10.1727 9.32519L8.71002 10.6568C6.46031 9.61466 4.61602 7.94296 3.47129 5.8877L4.94195 4.54888C5.28378 4.2377 5.45072 3.80349 5.39507 3.36205L5.16454 1.53836C5.06914 0.807445 4.39344 0.257446 3.58259 0.257446H2.20732C1.30903 0.257446 0.561776 0.937708 0.617422 1.75547C1.03875 7.93572 6.46826 12.8712 13.2492 13.2548C14.1475 13.3054 14.8947 12.6252 14.8947 11.8074V10.5555C14.9027 9.82453 14.2985 9.2094 13.4956 9.12256Z" fill="#212121"/>
</svg>
